<mxfile host="app.diagrams.net" agent="Mozilla/5.0 (Macintosh; Intel Mac OS X 10_15_7) AppleWebKit/537.36 (KHTML, like Gecko) Chrome/131.0.0.0 Safari/537.36" version="25.0.3">
  <diagram name="Page-1" id="KQGPQ42ZvFZ5Rqb40fgv">
    <mxGraphModel dx="1026" dy="650" grid="1" gridSize="10" guides="1" tooltips="1" connect="1" arrows="1" fold="1" page="1" pageScale="1" pageWidth="850" pageHeight="1100" math="0" shadow="0">
      <root>
        <mxCell id="0" />
        <mxCell id="1" parent="0" />
        <mxCell id="4h-LIhVPs7dn1zD_FTqH-17" value="" style="rounded=1;whiteSpace=wrap;html=1;" parent="1" vertex="1">
          <mxGeometry x="610" y="460" width="70" height="120" as="geometry" />
        </mxCell>
        <mxCell id="4h-LIhVPs7dn1zD_FTqH-15" value="" style="rounded=1;whiteSpace=wrap;html=1;" parent="1" vertex="1">
          <mxGeometry x="520" y="460" width="70" height="120" as="geometry" />
        </mxCell>
        <mxCell id="4h-LIhVPs7dn1zD_FTqH-13" value="" style="rounded=1;whiteSpace=wrap;html=1;" parent="1" vertex="1">
          <mxGeometry x="360" y="460" width="150" height="120" as="geometry" />
        </mxCell>
        <mxCell id="4h-LIhVPs7dn1zD_FTqH-11" value="" style="rounded=1;whiteSpace=wrap;html=1;" parent="1" vertex="1">
          <mxGeometry x="190" y="460" width="150" height="120" as="geometry" />
        </mxCell>
        <mxCell id="4h-LIhVPs7dn1zD_FTqH-1" value="" style="rounded=1;whiteSpace=wrap;html=1;" parent="1" vertex="1">
          <mxGeometry x="190" y="220" width="570" height="230" as="geometry" />
        </mxCell>
        <mxCell id="4h-LIhVPs7dn1zD_FTqH-2" value="Hive/ Iceberg" style="shape=cylinder3;whiteSpace=wrap;html=1;boundedLbl=1;backgroundOutline=1;size=15;fillColor=#f8cecc;strokeColor=#b85450;" parent="1" vertex="1">
          <mxGeometry x="200" y="500" width="60" height="80" as="geometry" />
        </mxCell>
        <mxCell id="4h-LIhVPs7dn1zD_FTqH-4" value="RedKV / Redis" style="shape=cylinder3;whiteSpace=wrap;html=1;boundedLbl=1;backgroundOutline=1;size=15;fillColor=#f8cecc;strokeColor=#b85450;" parent="1" vertex="1">
          <mxGeometry x="370" y="500" width="60" height="80" as="geometry" />
        </mxCell>
        <mxCell id="4h-LIhVPs7dn1zD_FTqH-5" value="Mysql" style="shape=cylinder3;whiteSpace=wrap;html=1;boundedLbl=1;backgroundOutline=1;size=15;fillColor=#f8cecc;strokeColor=#b85450;" parent="1" vertex="1">
          <mxGeometry x="440" y="500" width="60" height="80" as="geometry" />
        </mxCell>
        <mxCell id="4h-LIhVPs7dn1zD_FTqH-7" value="Kafka" style="shape=process;whiteSpace=wrap;html=1;backgroundOutline=1;fillColor=#f8cecc;strokeColor=#b85450;" parent="1" vertex="1">
          <mxGeometry x="530" y="500" width="50" height="80" as="geometry" />
        </mxCell>
        <mxCell id="4h-LIhVPs7dn1zD_FTqH-8" value="OLAP" style="shape=cylinder3;whiteSpace=wrap;html=1;boundedLbl=1;backgroundOutline=1;size=15;fillColor=#f8cecc;strokeColor=#b85450;" parent="1" vertex="1">
          <mxGeometry x="270" y="500" width="60" height="80" as="geometry" />
        </mxCell>
        <mxCell id="4h-LIhVPs7dn1zD_FTqH-9" value="picture&lt;div&gt;video&lt;/div&gt;&lt;div&gt;sounds&lt;/div&gt;" style="shape=note;whiteSpace=wrap;html=1;backgroundOutline=1;darkOpacity=0.05;fillColor=#f8cecc;strokeColor=#b85450;size=28;" parent="1" vertex="1">
          <mxGeometry x="620" y="510" width="50" height="60" as="geometry" />
        </mxCell>
        <mxCell id="4h-LIhVPs7dn1zD_FTqH-12" value="DataLake" style="text;html=1;align=center;verticalAlign=middle;whiteSpace=wrap;rounded=0;" parent="1" vertex="1">
          <mxGeometry x="235" y="470" width="60" height="30" as="geometry" />
        </mxCell>
        <mxCell id="4h-LIhVPs7dn1zD_FTqH-14" value="DBMS" style="text;html=1;align=center;verticalAlign=middle;whiteSpace=wrap;rounded=0;" parent="1" vertex="1">
          <mxGeometry x="405" y="470" width="60" height="30" as="geometry" />
        </mxCell>
        <mxCell id="4h-LIhVPs7dn1zD_FTqH-16" value="MQ" style="text;html=1;align=center;verticalAlign=middle;whiteSpace=wrap;rounded=0;" parent="1" vertex="1">
          <mxGeometry x="525" y="470" width="60" height="30" as="geometry" />
        </mxCell>
        <mxCell id="4h-LIhVPs7dn1zD_FTqH-18" value="FileSet" style="text;html=1;align=center;verticalAlign=middle;whiteSpace=wrap;rounded=0;" parent="1" vertex="1">
          <mxGeometry x="615" y="470" width="60" height="30" as="geometry" />
        </mxCell>
        <mxCell id="4h-LIhVPs7dn1zD_FTqH-19" value="Catalog" style="rounded=0;whiteSpace=wrap;html=1;fillColor=#d5e8d4;strokeColor=#82b366;" parent="1" vertex="1">
          <mxGeometry x="220" y="400" width="120" height="40" as="geometry" />
        </mxCell>
        <mxCell id="4h-LIhVPs7dn1zD_FTqH-20" value="Metadata" style="rounded=0;whiteSpace=wrap;html=1;fillColor=#d5e8d4;strokeColor=#82b366;" parent="1" vertex="1">
          <mxGeometry x="365" y="400" width="120" height="40" as="geometry" />
        </mxCell>
        <mxCell id="4h-LIhVPs7dn1zD_FTqH-21" value="Audit" style="rounded=0;whiteSpace=wrap;html=1;fillColor=#d5e8d4;strokeColor=#82b366;" parent="1" vertex="1">
          <mxGeometry x="500" y="400" width="120" height="40" as="geometry" />
        </mxCell>
        <mxCell id="4h-LIhVPs7dn1zD_FTqH-22" value="Monitor" style="rounded=0;whiteSpace=wrap;html=1;fillColor=#d5e8d4;strokeColor=#82b366;" parent="1" vertex="1">
          <mxGeometry x="630" y="400" width="120" height="40" as="geometry" />
        </mxCell>
        <mxCell id="4h-LIhVPs7dn1zD_FTqH-23" value="Privilege Control" style="rounded=1;whiteSpace=wrap;html=1;fillColor=#d5e8d4;strokeColor=#82b366;" parent="1" vertex="1">
          <mxGeometry x="220" y="290" width="530" height="45" as="geometry" />
        </mxCell>
        <mxCell id="4h-LIhVPs7dn1zD_FTqH-24" value="Restful API / SDK" style="rounded=1;whiteSpace=wrap;html=1;fillColor=#d5e8d4;strokeColor=#82b366;" parent="1" vertex="1">
          <mxGeometry x="220" y="230" width="530" height="45" as="geometry" />
        </mxCell>
        <mxCell id="4h-LIhVPs7dn1zD_FTqH-25" value="Spark" style="rounded=1;whiteSpace=wrap;html=1;fillColor=#dae8fc;strokeColor=#6c8ebf;" parent="1" vertex="1">
          <mxGeometry x="190" y="150" width="80" height="60" as="geometry" />
        </mxCell>
        <mxCell id="4h-LIhVPs7dn1zD_FTqH-26" value="Flink" style="rounded=1;whiteSpace=wrap;html=1;fillColor=#dae8fc;strokeColor=#6c8ebf;" parent="1" vertex="1">
          <mxGeometry x="310" y="150" width="80" height="60" as="geometry" />
        </mxCell>
        <mxCell id="4h-LIhVPs7dn1zD_FTqH-27" value="Hamster" style="rounded=1;whiteSpace=wrap;html=1;fillColor=#dae8fc;strokeColor=#6c8ebf;" parent="1" vertex="1">
          <mxGeometry x="425" y="150" width="80" height="60" as="geometry" />
        </mxCell>
        <mxCell id="4h-LIhVPs7dn1zD_FTqH-28" value="TF" style="rounded=1;whiteSpace=wrap;html=1;fillColor=#dae8fc;strokeColor=#6c8ebf;" parent="1" vertex="1">
          <mxGeometry x="550" y="150" width="80" height="60" as="geometry" />
        </mxCell>
        <mxCell id="4h-LIhVPs7dn1zD_FTqH-29" value="OLAP" style="rounded=1;whiteSpace=wrap;html=1;fillColor=#dae8fc;strokeColor=#6c8ebf;" parent="1" vertex="1">
          <mxGeometry x="670" y="150" width="80" height="60" as="geometry" />
        </mxCell>
        <mxCell id="4h-LIhVPs7dn1zD_FTqH-30" value="存储层" style="text;html=1;align=center;verticalAlign=middle;whiteSpace=wrap;rounded=0;" parent="1" vertex="1">
          <mxGeometry x="110" y="510" width="60" height="30" as="geometry" />
        </mxCell>
        <mxCell id="4h-LIhVPs7dn1zD_FTqH-31" value="元数据层" style="text;html=1;align=center;verticalAlign=middle;whiteSpace=wrap;rounded=0;" parent="1" vertex="1">
          <mxGeometry x="110" y="340" width="60" height="30" as="geometry" />
        </mxCell>
        <mxCell id="4h-LIhVPs7dn1zD_FTqH-32" value="引擎层" style="text;html=1;align=center;verticalAlign=middle;whiteSpace=wrap;rounded=0;" parent="1" vertex="1">
          <mxGeometry x="110" y="165" width="60" height="30" as="geometry" />
        </mxCell>
        <mxCell id="4h-LIhVPs7dn1zD_FTqH-33" value="" style="rounded=1;whiteSpace=wrap;html=1;" parent="1" vertex="1">
          <mxGeometry x="190" y="50" width="570" height="80" as="geometry" />
        </mxCell>
        <mxCell id="4h-LIhVPs7dn1zD_FTqH-34" value="平台层" style="text;html=1;align=center;verticalAlign=middle;whiteSpace=wrap;rounded=0;" parent="1" vertex="1">
          <mxGeometry x="110" y="85" width="60" height="30" as="geometry" />
        </mxCell>
        <mxCell id="4h-LIhVPs7dn1zD_FTqH-35" value="百川" style="rounded=1;whiteSpace=wrap;html=1;" parent="1" vertex="1">
          <mxGeometry x="205" y="65" width="120" height="60" as="geometry" />
        </mxCell>
        <mxCell id="4h-LIhVPs7dn1zD_FTqH-36" value="Larc&lt;span style=&quot;color: rgba(0, 0, 0, 0); font-family: monospace; font-size: 0px; text-align: start; text-wrap: nowrap;&quot;&gt;%3CmxGraphModel%3E%3Croot%3E%3CmxCell%20id%3D%220%22%2F%3E%3CmxCell%20id%3D%221%22%20parent%3D%220%22%2F%3E%3CmxCell%20id%3D%222%22%20value%3D%22Dataverse%20%2F%20Dor%22%20style%3D%22rounded%3D1%3BwhiteSpace%3Dwrap%3Bhtml%3D1%3B%22%20vertex%3D%221%22%20parent%3D%221%22%3E%3CmxGeometry%20x%3D%22205%22%20y%3D%2295%22%20width%3D%22120%22%20height%3D%2260%22%20as%3D%22geometry%22%2F%3E%3C%2FmxCell%3E%3C%2Froot%3E%3C%2FmxGraphModel%3E&lt;/span&gt;" style="rounded=1;whiteSpace=wrap;html=1;" parent="1" vertex="1">
          <mxGeometry x="345" y="65" width="120" height="60" as="geometry" />
        </mxCell>
        <mxCell id="4h-LIhVPs7dn1zD_FTqH-37" value="QS" style="rounded=1;whiteSpace=wrap;html=1;" parent="1" vertex="1">
          <mxGeometry x="485" y="65" width="120" height="60" as="geometry" />
        </mxCell>
        <mxCell id="4h-LIhVPs7dn1zD_FTqH-39" value="Xray" style="rounded=1;whiteSpace=wrap;html=1;" parent="1" vertex="1">
          <mxGeometry x="625" y="65" width="120" height="60" as="geometry" />
        </mxCell>
        <mxCell id="4h-LIhVPs7dn1zD_FTqH-40" value="Lineage" style="rounded=1;whiteSpace=wrap;html=1;fillColor=#d5e8d4;strokeColor=#82b366;" parent="1" vertex="1">
          <mxGeometry x="220" y="350" width="530" height="45" as="geometry" />
        </mxCell>
        <mxCell id="n64vbzkY83uTTD6gw6T2-1" value="" style="rounded=1;whiteSpace=wrap;html=1;" parent="1" vertex="1">
          <mxGeometry x="690" y="460" width="70" height="120" as="geometry" />
        </mxCell>
        <mxCell id="n64vbzkY83uTTD6gw6T2-3" value="Model" style="text;html=1;align=center;verticalAlign=middle;whiteSpace=wrap;rounded=0;" parent="1" vertex="1">
          <mxGeometry x="695" y="470" width="60" height="30" as="geometry" />
        </mxCell>
        <mxCell id="n64vbzkY83uTTD6gw6T2-4" value="模型" style="ellipse;whiteSpace=wrap;html=1;fillColor=#f8cecc;strokeColor=#b85450;" parent="1" vertex="1">
          <mxGeometry x="690" y="530" width="70" height="40" as="geometry" />
        </mxCell>
      </root>
    </mxGraphModel>
  </diagram>
</mxfile>
